<?xml version="1.0" encoding="utf-8"?>
<!-- Generator: Adobe Illustrator 27.0.0, SVG Export Plug-In . SVG Version: 6.00 Build 0)  -->
<svg version="1.1" id="Layer_1" xmlns="http://www.w3.org/2000/svg" xmlns:xlink="http://www.w3.org/1999/xlink" x="0px" y="0px"
	 viewBox="0 0 16 16" style="enable-background:new 0 0 16 16;" xml:space="preserve">
<style type="text/css">
	.st0{fill:#EDF0F1;}
</style>
<path class="st0" d="M8,11c1.7,0,3-1.3,3-3S9.7,5,8,5S5,6.3,5,8S6.3,11,8,11z"/>
<path class="st0" d="M14,5.2c0.1-2.8-2.1-5.1-4.8-5.2C8,0,6.8,0.3,5.9,1.1c-2.7-0.5-5.3,1.3-5.8,4c-0.3,1.5,0.2,3.1,1.2,4.2
	c-0.9,2.6,0.5,5.5,3.1,6.4c1.9,0.7,3.9,0.2,5.3-1.3c1.6,1,3.8,0.6,4.8-1.1c0.6-0.9,0.7-2,0.4-3c1.3-1,1.6-2.9,0.6-4.2
	C15,5.7,14.5,5.4,14,5.2L14,5.2z M13,5.1c0,0.4,0.3,0.8,0.7,1c1,0.4,1.6,1.5,1.2,2.6c-0.1,0.4-0.4,0.7-0.7,0.9
	c-0.3,0.3-0.5,0.7-0.3,1.1c0.4,1.3-0.3,2.7-1.6,3.2c-0.7,0.2-1.5,0.1-2.1-0.3c-0.4-0.3-0.9-0.2-1.3,0.2c-1.5,1.6-4.1,1.7-5.7,0.1
	c-1.1-1.1-1.5-2.7-1-4.2c0.1-0.3,0-0.7-0.2-1C0.5,7,0.7,4.5,2.3,3c0.9-0.8,2.2-1.2,3.4-1C6,2.1,6.3,2,6.5,1.9
	c1.7-1.4,4.2-1.1,5.6,0.7C12.7,3.3,13,4.2,13,5.1L13,5.1z"/>
</svg>
